<svg xmlns="http://www.w3.org/2000/svg" viewBox="0 0 314.04 40.13"><defs><style>.cls-1{fill:#fff;stroke:#000;stroke-miterlimit:10;}.cls-2{font-size:14px;font-family:MyriadPro-Regular, Myriad Pro;}.cls-3{letter-spacing:-0.01em;}</style></defs><g id="Layer_2" data-name="Layer 2"><g id="Layer_1-2" data-name="Layer 1"><rect class="cls-1" x="0.5" y="0.5" width="39.13" height="39.13"/><rect class="cls-1" x="39.63" y="0.5" width="39.13" height="39.13"/><rect class="cls-1" x="78.76" y="0.5" width="39.13" height="39.13"/><rect class="cls-1" x="117.89" y="0.5" width="39.13" height="39.13"/><rect class="cls-1" x="157.02" y="0.5" width="78.26" height="39.13"/><rect class="cls-1" x="235.28" y="0.5" width="39.13" height="39.13"/><rect class="cls-1" x="274.41" y="0.5" width="39.13" height="39.13"/><text class="cls-2" transform="translate(7.71 26.5) scale(0.58)"><tspan class="cls-3">r</tspan><tspan x="4.44" y="0">eal</tspan></text><text class="cls-2" transform="translate(20.24 21.84)">X</text><text class="cls-2" transform="translate(28.24 26.5) scale(0.58)">0</text><text class="cls-2" transform="translate(44.5 26.51) scale(0.58)">imag</text><text class="cls-2" transform="translate(61.71 21.84)">X</text><text class="cls-2" transform="translate(69.71 26.51) scale(0.58)">0</text><text class="cls-2" transform="translate(85.97 26.51) scale(0.58)"><tspan class="cls-3">r</tspan><tspan x="4.44" y="0">eal</tspan></text><text class="cls-2" transform="translate(98.5 21.84)">X</text><text class="cls-2" transform="translate(106.5 26.51) scale(0.58)">1</text><text class="cls-2" transform="translate(122.76 26.51) scale(0.58)">imag</text><text class="cls-2" transform="translate(139.97 21.84)">X</text><text class="cls-2" transform="translate(147.97 26.51) scale(0.58)">1</text><text class="cls-2" transform="translate(238.55 26.5) scale(0.58)"><tspan class="cls-3">r</tspan><tspan x="4.44" y="0">eal</tspan></text><text class="cls-2" transform="translate(251.09 21.84)">X</text><text class="cls-2" transform="translate(259.08 26.5) scale(0.58)">N-1</text><text class="cls-2" transform="translate(275.34 26.51) scale(0.58)">imag</text><text class="cls-2" transform="translate(292.56 21.84)">X</text><text class="cls-2" transform="translate(300.55 26.51) scale(0.58)">N-1</text><text class="cls-2" transform="translate(193.62 22.46) scale(0.58)">...</text></g></g></svg>