<svg id="Layer_1" data-name="Layer 1" xmlns="http://www.w3.org/2000/svg" viewBox="0 0 314.04 58.52"><defs><style>.cls-1{fill:#fff;stroke:#000;stroke-miterlimit:10;}.cls-10,.cls-2,.cls-4{font-size:14px;font-family:MyriadPro-Regular, Myriad Pro;}.cls-3{letter-spacing:-0.01em;}.cls-4{letter-spacing:-0.07em;}.cls-5{letter-spacing:0em;}.cls-6{letter-spacing:0.01em;}.cls-7{letter-spacing:-0.01em;}.cls-8{letter-spacing:-0.01em;}.cls-9{letter-spacing:-0.01em;}.cls-10{letter-spacing:0.04em;}.cls-11{letter-spacing:0.03em;}.cls-12{letter-spacing:-0.09em;}.cls-13{letter-spacing:-0.01em;}.cls-14{letter-spacing:0em;}.cls-15{letter-spacing:0em;}</style></defs><rect class="cls-1" x="0.5" y="0.5" width="39.13" height="39.13"/><rect class="cls-1" x="39.63" y="0.5" width="78.26" height="39.13"/><rect class="cls-1" x="117.89" y="0.5" width="39.13" height="39.13"/><rect class="cls-1" x="157.02" y="0.5" width="156.52" height="39.13"/><text class="cls-2" transform="translate(6.05 24.17)">0x54</text><text class="cls-2" transform="translate(130.58 24.17)"><tspan class="cls-3">T</tspan><tspan x="6.87" y="0">S</tspan></text><path class="cls-1" d="M6995,7088.15" transform="translate(-6917.04 -7087.65)"/><line class="cls-1" x1="77.98" y1="0.5" x2="77.98" y2="8.59"/><line class="cls-1" x1="78.76" y1="31.54" x2="78.76" y2="39.63"/><line class="cls-1" x1="196.15" y1="31.54" x2="196.15" y2="39.63"/><line class="cls-1" x1="196.15" y1="0.5" x2="196.15" y2="8.59"/><line class="cls-1" x1="235.28" y1="0.5" x2="235.28" y2="8.59"/><line class="cls-1" x1="274.41" y1="0.5" x2="274.41" y2="8.59"/><line class="cls-1" x1="235.28" y1="31.54" x2="235.28" y2="39.63"/><line class="cls-1" x1="274.41" y1="31.54" x2="274.41" y2="39.63"/><text class="cls-4" transform="translate(57.83 24.17)">T<tspan class="cls-5" x="5.96" y="0">empo</tspan></text><path class="cls-1" d="M7113.2,7127.28" transform="translate(-6917.04 -7087.65)"/><text class="cls-2" transform="translate(192.65 24.17)"><tspan class="cls-6">R</tspan><tspan class="cls-7" x="7.66" y="0">h</tspan><tspan class="cls-5" x="15.25" y="0">ytm </tspan><tspan class="cls-8" x="41.12" y="0">r</tspan><tspan x="45.56" y="0">e</tspan><tspan class="cls-9" x="52.57" y="0">g</tspan><tspan x="60.31" y="0">is</tspan><tspan class="cls-3" x="69.13" y="0">t</tspan><tspan x="73.68" y="0">er</tspan></text><text class="cls-10" transform="translate(13.33 55.02)">‘<tspan class="cls-11" x="3.46" y="0">T</tspan><tspan class="cls-12" x="10.89" y="0">’</tspan></text><text class="cls-2" transform="translate(94.19 55.02)"><tspan class="cls-13">T</tspan><tspan x="6.79" y="0">ime si</tspan><tspan class="cls-9" x="40.54" y="0">g</tspan><tspan class="cls-14" x="48.29" y="0">n</tspan><tspan class="cls-15" x="56.06" y="0">a</tspan><tspan class="cls-5" x="62.75" y="0">tu</tspan><tspan class="cls-8" x="75.1" y="0">r</tspan><tspan x="79.53" y="0">e</tspan></text></svg>